<mxfile host="app.diagrams.net" modified="2021-02-26T11:26:29.406Z" agent="5.0 (Macintosh; Intel Mac OS X 10_14_4) AppleWebKit/537.36 (KHTML, like Gecko) Chrome/88.0.4324.150 Safari/537.36" etag="j7oLqGwvRL_-J7d8bxTq" version="14.4.2" type="github">
  <diagram id="zqatgtqVmQLryy7mBaCC" name="Page-1">
    <mxGraphModel dx="988" dy="538" grid="1" gridSize="10" guides="1" tooltips="1" connect="1" arrows="1" fold="1" page="1" pageScale="1" pageWidth="827" pageHeight="583" math="0" shadow="0">
      <root>
        <mxCell id="0" />
        <mxCell id="Qgsl-f7vMEq5jR0HELyn-3" value="Main Layer" parent="0" />
        <mxCell id="1" parent="0" />
        <mxCell id="Qgsl-f7vMEq5jR0HELyn-11" value="铁矿区" style="text;html=1;strokeColor=none;fillColor=none;align=center;verticalAlign=middle;whiteSpace=wrap;rounded=0;" vertex="1" parent="1">
          <mxGeometry x="40" y="20" width="40" height="20" as="geometry" />
        </mxCell>
        <mxCell id="Qgsl-f7vMEq5jR0HELyn-12" value="" style="shape=image;verticalLabelPosition=bottom;labelBackgroundColor=#ffffff;verticalAlign=top;aspect=fixed;imageAspect=0;image=https://patchwiki.biligame.com/images/dsp/thumb/6/65/lyuse846g6rpd7p2evbxtp1yr3l8mwg.png/40px-%E9%93%81%E5%9D%97.png;" vertex="1" parent="1">
          <mxGeometry x="150" y="60" width="40" height="40" as="geometry" />
        </mxCell>
        <mxCell id="Qgsl-f7vMEq5jR0HELyn-15" style="edgeStyle=orthogonalEdgeStyle;rounded=0;orthogonalLoop=1;jettySize=auto;html=1;exitX=1;exitY=0.5;exitDx=0;exitDy=0;entryX=0;entryY=0.5;entryDx=0;entryDy=0;" edge="1" parent="1" source="Qgsl-f7vMEq5jR0HELyn-13" target="Qgsl-f7vMEq5jR0HELyn-12">
          <mxGeometry relative="1" as="geometry" />
        </mxCell>
        <mxCell id="Qgsl-f7vMEq5jR0HELyn-24" value="1s" style="edgeLabel;html=1;align=center;verticalAlign=middle;resizable=0;points=[];" vertex="1" connectable="0" parent="Qgsl-f7vMEq5jR0HELyn-15">
          <mxGeometry x="-0.1278" y="-2" relative="1" as="geometry">
            <mxPoint as="offset" />
          </mxGeometry>
        </mxCell>
        <mxCell id="Qgsl-f7vMEq5jR0HELyn-13" value="" style="shape=image;verticalLabelPosition=bottom;labelBackgroundColor=#ffffff;verticalAlign=top;aspect=fixed;imageAspect=0;image=https://patchwiki.biligame.com/images/dsp/thumb/5/57/8uelmemz3p6e2e9puiqw6xmkoyer7iz.png/40px-%E9%93%81%E7%9F%BF.png;" vertex="1" parent="1">
          <mxGeometry x="50" y="60" width="40" height="40" as="geometry" />
        </mxCell>
        <mxCell id="Qgsl-f7vMEq5jR0HELyn-14" value="" style="shape=image;verticalLabelPosition=bottom;labelBackgroundColor=#ffffff;verticalAlign=top;aspect=fixed;imageAspect=0;image=https://patchwiki.biligame.com/images/dsp/thumb/1/1c/42v5h2i0jrs4279tgso4g2kl7v4u78g.png/40px-%E7%A3%81%E9%93%81.png;" vertex="1" parent="1">
          <mxGeometry x="150" y="120" width="40" height="40" as="geometry" />
        </mxCell>
        <mxCell id="Qgsl-f7vMEq5jR0HELyn-17" style="edgeStyle=orthogonalEdgeStyle;rounded=0;orthogonalLoop=1;jettySize=auto;html=1;exitX=1;exitY=0.5;exitDx=0;exitDy=0;entryX=0;entryY=0.5;entryDx=0;entryDy=0;" edge="1" parent="1" source="Qgsl-f7vMEq5jR0HELyn-16" target="Qgsl-f7vMEq5jR0HELyn-14">
          <mxGeometry relative="1" as="geometry" />
        </mxCell>
        <mxCell id="Qgsl-f7vMEq5jR0HELyn-25" value="1.5s" style="edgeLabel;html=1;align=center;verticalAlign=middle;resizable=0;points=[];" vertex="1" connectable="0" parent="Qgsl-f7vMEq5jR0HELyn-17">
          <mxGeometry x="-0.0167" y="-1" relative="1" as="geometry">
            <mxPoint as="offset" />
          </mxGeometry>
        </mxCell>
        <mxCell id="Qgsl-f7vMEq5jR0HELyn-16" value="" style="shape=image;verticalLabelPosition=bottom;labelBackgroundColor=#ffffff;verticalAlign=top;aspect=fixed;imageAspect=0;image=https://patchwiki.biligame.com/images/dsp/thumb/5/57/8uelmemz3p6e2e9puiqw6xmkoyer7iz.png/40px-%E9%93%81%E7%9F%BF.png;" vertex="1" parent="1">
          <mxGeometry x="50" y="120" width="40" height="40" as="geometry" />
        </mxCell>
        <mxCell id="Qgsl-f7vMEq5jR0HELyn-19" value="" style="shape=image;verticalLabelPosition=bottom;labelBackgroundColor=#ffffff;verticalAlign=top;aspect=fixed;imageAspect=0;image=https://patchwiki.biligame.com/images/dsp/thumb/2/29/p85fcng6r6j9ltj7j9vz6l0z5b66ncg.png/40px-%E9%93%9C%E5%9D%97.png;" vertex="1" parent="1">
          <mxGeometry x="150" y="272" width="40" height="40" as="geometry" />
        </mxCell>
        <mxCell id="Qgsl-f7vMEq5jR0HELyn-22" style="edgeStyle=orthogonalEdgeStyle;rounded=0;orthogonalLoop=1;jettySize=auto;html=1;exitX=1;exitY=0.5;exitDx=0;exitDy=0;entryX=0;entryY=0.5;entryDx=0;entryDy=0;" edge="1" parent="1" source="Qgsl-f7vMEq5jR0HELyn-20" target="Qgsl-f7vMEq5jR0HELyn-19">
          <mxGeometry relative="1" as="geometry" />
        </mxCell>
        <mxCell id="Qgsl-f7vMEq5jR0HELyn-23" value="1s" style="edgeLabel;html=1;align=center;verticalAlign=middle;resizable=0;points=[];" vertex="1" connectable="0" parent="Qgsl-f7vMEq5jR0HELyn-22">
          <mxGeometry x="-0.2389" y="1" relative="1" as="geometry">
            <mxPoint as="offset" />
          </mxGeometry>
        </mxCell>
        <mxCell id="Qgsl-f7vMEq5jR0HELyn-20" value="" style="shape=image;verticalLabelPosition=bottom;labelBackgroundColor=#ffffff;verticalAlign=top;aspect=fixed;imageAspect=0;image=https://patchwiki.biligame.com/images/dsp/thumb/f/f8/dxnqyuz7j954ipni8j5xke0zkvyz1m7.png/40px-%E9%93%9C%E7%9F%BF.png;" vertex="1" parent="1">
          <mxGeometry x="50" y="272" width="40" height="40" as="geometry" />
        </mxCell>
        <mxCell id="Qgsl-f7vMEq5jR0HELyn-21" value="铜矿区" style="text;html=1;strokeColor=none;fillColor=none;align=center;verticalAlign=middle;whiteSpace=wrap;rounded=0;" vertex="1" parent="1">
          <mxGeometry x="40" y="220" width="40" height="20" as="geometry" />
        </mxCell>
        <mxCell id="Qgsl-f7vMEq5jR0HELyn-26" value="石矿区" style="text;html=1;strokeColor=none;fillColor=none;align=center;verticalAlign=middle;whiteSpace=wrap;rounded=0;" vertex="1" parent="1">
          <mxGeometry x="40" y="350" width="40" height="20" as="geometry" />
        </mxCell>
        <mxCell id="Qgsl-f7vMEq5jR0HELyn-29" style="edgeStyle=orthogonalEdgeStyle;rounded=0;orthogonalLoop=1;jettySize=auto;html=1;exitX=1;exitY=0.5;exitDx=0;exitDy=0;" edge="1" parent="1" source="Qgsl-f7vMEq5jR0HELyn-27" target="Qgsl-f7vMEq5jR0HELyn-28">
          <mxGeometry relative="1" as="geometry" />
        </mxCell>
        <mxCell id="Qgsl-f7vMEq5jR0HELyn-30" value="2s" style="edgeLabel;html=1;align=center;verticalAlign=middle;resizable=0;points=[];" vertex="1" connectable="0" parent="Qgsl-f7vMEq5jR0HELyn-29">
          <mxGeometry x="-0.2667" y="2" relative="1" as="geometry">
            <mxPoint as="offset" />
          </mxGeometry>
        </mxCell>
        <mxCell id="Qgsl-f7vMEq5jR0HELyn-27" value="2" style="shape=image;verticalLabelPosition=bottom;labelBackgroundColor=#ffffff;verticalAlign=top;aspect=fixed;imageAspect=0;image=https://patchwiki.biligame.com/images/dsp/thumb/b/b5/4svj4l67evwqrprxdx9hef15sf78bm4.png/40px-%E7%9F%B3%E7%9F%BF.png;" vertex="1" parent="1">
          <mxGeometry x="50" y="390" width="40" height="40" as="geometry" />
        </mxCell>
        <mxCell id="Qgsl-f7vMEq5jR0HELyn-28" value="" style="shape=image;verticalLabelPosition=bottom;labelBackgroundColor=#ffffff;verticalAlign=top;aspect=fixed;imageAspect=0;image=https://patchwiki.biligame.com/images/dsp/thumb/0/04/70ai2r2llinr8r2q6p0em5czefa33xb.png/40px-%E7%8E%BB%E7%92%83.png;" vertex="1" parent="1">
          <mxGeometry x="150" y="390" width="40" height="40" as="geometry" />
        </mxCell>
        <mxCell id="Qgsl-f7vMEq5jR0HELyn-31" value="" style="shape=image;verticalLabelPosition=bottom;labelBackgroundColor=#ffffff;verticalAlign=top;aspect=fixed;imageAspect=0;image=https://patchwiki.biligame.com/images/dsp/thumb/9/92/2vdsjgbnntoq676ajriayfw0jjnvt82.png/40px-%E7%9F%B3%E6%9D%90.png;" vertex="1" parent="1">
          <mxGeometry x="150" y="470" width="40" height="40" as="geometry" />
        </mxCell>
        <mxCell id="Qgsl-f7vMEq5jR0HELyn-33" style="edgeStyle=orthogonalEdgeStyle;rounded=0;orthogonalLoop=1;jettySize=auto;html=1;exitX=1;exitY=0.5;exitDx=0;exitDy=0;" edge="1" parent="1" source="Qgsl-f7vMEq5jR0HELyn-32" target="Qgsl-f7vMEq5jR0HELyn-31">
          <mxGeometry relative="1" as="geometry" />
        </mxCell>
        <mxCell id="Qgsl-f7vMEq5jR0HELyn-32" value="" style="shape=image;verticalLabelPosition=bottom;labelBackgroundColor=#ffffff;verticalAlign=top;aspect=fixed;imageAspect=0;image=https://patchwiki.biligame.com/images/dsp/thumb/b/b5/4svj4l67evwqrprxdx9hef15sf78bm4.png/40px-%E7%9F%B3%E7%9F%BF.png;" vertex="1" parent="1">
          <mxGeometry x="50" y="470" width="40" height="40" as="geometry" />
        </mxCell>
      </root>
    </mxGraphModel>
  </diagram>
</mxfile>
